<svg width="18" height="18" viewBox="0 0 18 18" fill="none" xmlns="http://www.w3.org/2000/svg">
<path fill-rule="evenodd" clip-rule="evenodd" d="M8.6954 0.814641C8.88932 0.728453 9.11068 0.728453 9.30461 0.814641L16.8046 4.14797C17.0755 4.26835 17.25 4.53694 17.25 4.83333C17.25 5.12972 17.0755 5.39832 16.8046 5.51869L9.30461 8.85203C9.11068 8.93821 8.88932 8.93821 8.6954 8.85203L1.1954 5.51869C0.924554 5.39832 0.750004 5.12972 0.750004 4.83333C0.750004 4.53694 0.924554 4.26835 1.1954 4.14797L8.6954 0.814641ZM3.34666 4.83333L9 7.34593L14.6533 4.83333L9 2.32074L3.34666 4.83333ZM0.814645 8.6954C0.982874 8.31688 1.42609 8.14641 1.80461 8.31464L9 11.5126L16.1954 8.31464C16.5739 8.14641 17.0171 8.31688 17.1854 8.6954C17.3536 9.07391 17.1831 9.51713 16.8046 9.68536L9.30461 13.0187C9.11068 13.1049 8.88932 13.1049 8.6954 13.0187L1.1954 9.68536C0.816887 9.51713 0.646417 9.07391 0.814645 8.6954ZM1.80461 12.4813C1.42609 12.3131 0.982874 12.4835 0.814645 12.8621C0.646417 13.2406 0.816887 13.6838 1.1954 13.852L8.6954 17.1854C8.88932 17.2715 9.11068 17.2715 9.30461 17.1854L16.8046 13.852C17.1831 13.6838 17.3536 13.2406 17.1854 12.8621C17.0171 12.4835 16.5739 12.3131 16.1954 12.4813L9 15.6793L1.80461 12.4813Z" fill="#23213D"/>
</svg>
